# xmcd
#
# Track frame offsets:
#	150
#	18063
#	27771
#	53173
#	76514
#	96374
#	120187
#	137210
#	153925
#	173024
#	192085
#	209490
#	226086
#	243465
#	263341
#	275413
#	290610
#	304360
#	320847
#
# Disc length: 4438 seconds
#
# Revision: 0
# Processed by: cddbd v1.4PL0 Copyright (c) Steve Scherf et al.
# Submitted via: EasyCDDAExtractor 4.5.0.2
#
DISCID=f5115413
DTITLE=Gianmarco
DYEAR=1900
DGENRE=
TTITLE0=Lamento
TTITLE1=Sentirme Vivo
TTITLE2=Si Estuvieras Aquí
TTITLE3=Se Que Piensas En Mi
TTITLE4=Fragilidad
TTITLE5=Parte De Este Juego
TTITLE6=Tomate El Tiempo Que Quieras
TTITLE7=No Puedo Amarte
TTITLE8=Donde Estarás
TTITLE9=Cuando Quiero Amarte
TTITLE10=Ya Tienes Dueño
TTITLE11=Gorrión
TTITLE12=Déjame Amarte
TTITLE13=Ojalá No Sea Tarde
TTITLE14=Luz María
TTITLE15=Jamás Impedirás
TTITLE16=Señora Cúentame
TTITLE17=La Flor De La Canela
TTITLE18=El Plebeyo
EXTD=
EXTT0=
EXTT1=
EXTT2=
EXTT3=
EXTT4=
EXTT5=
EXTT6=
EXTT7=
EXTT8=
EXTT9=
EXTT10=
EXTT11=
EXTT12=
EXTT13=
EXTT14=
EXTT15=
EXTT16=
EXTT17=
EXTT18=
PLAYORDER=
